<?xml version="1.0" encoding="UTF-8"?>
<svg id="Layer_1" xmlns="http://www.w3.org/2000/svg" version="1.1" viewBox="0 0 3840 2160">
  <!-- Generator: Adobe Illustrator 30.4.0, SVG Export Plug-In . SVG Version: 2.1.4 Build 226)  -->
  <defs>
    <style>
      .st0 {
        fill: transparent;
      }

      .st1 {
        fill: rgba(255,255,255,0.09);
        fill-rule: evenodd;
        stroke: rgba(255,255,255,0.26);
        stroke-miterlimit: 10;
      }
    </style>
  </defs>
  
  <path class="st1" d="M1204.65,245.96l2.55-8.56-13.73-7.34-8.94,5.5-20.11,3.36-7.02-9.79,20.11-7.95,27.78-19.26,23.63-.92.96-24.77,10.86-7.34,19.48,2.45,23.63-27.22,10.86.61,14.05-8.56,25.22,14.37,3.51-3.67v-9.48l14.69.92,3.19,18.04,9.26,6.42,6.7-6.12.96-19.57,8.94-2.75,20.43,6.73,7.02,10.7,5.43-1.22.64-28.13,5.75-2.45,20.11,10.7,7.98,1.53,31.61-24.46,30.01-6.42h30.33l4.79,7.34-7.34,5.5-21.07,4.59-2.24,6.42,14.69,1.53,19.16-7.95,15.96-4.89,29.37.31,15.33,6.73-5.43,7.34-20.43.92-27.46-.31-33.21,9.48-7.98,10.09,10.54,4.28,11.49-7.03,23.95-9.17,15.64,5.5-5.43,13.45,13.41,2.75,19.16-15.9,9.26,2.45-1.6,8.26-12.77,8.87-1.6,11.31,10.22-.92,8.94-9.48,17.24-9.79,20.11-4.59,27.14-3.36,17.88,3.98-1.92,12.54-22.03,11.01-28.1,2.75-19.16,4.59-.96,6.12,14.05,3.98,1.28,4.28-9.58,9.79-19.48,12.23-2.87,9.79,4.15,5.5,18.84-.31,10.22.92,2.87,6.42-4.47,8.87-12.77,6.73-3.19,9.79,2.87,7.64,11.49,2.45,7.34,4.28-7.98,19.26-16.6,3.67-1.6,8.56-13.09,3.67-7.34,9.48-11.81-6.42-9.9,4.89,3.83,10.4,12.45,1.22,11.49,11.01,5.43,12.54-9.26,8.56-15.96-5.81-13.09-10.4-9.58-1.83-8.94,6.73.64,11.62,17.88,3.98,15.01-.61,6.39,8.26-10.54,12.84-25.86,22.32-18.84,3.98-15.96-4.59-17.56-1.22-11.49,7.03-1.6,14.37-9.26,13.76-14.05,5.5-45.66,4.59-7.34,8.56.32,15.6-18.52,20.49-1.28,21.41-11.17,21.41-13.73,7.03-9.9-6.73-6.7-11.31-12.13-.31-20.75-26.91-10.22-38.22-10.86-27.83,4.79-21.71,14.05-10.7,13.73-8.87v-12.23l-6.7-8.26-22.99-2.75.64-6.42,11.49.31,8.3-3.67-4.79-15.29-7.66-1.22-5.75,9.17-9.58-2.75-2.55-40.06-10.86-27.52-27.14-20.79-21.07-1.22-21.07,7.34-22.03-5.2-17.88-13.76,4.47-7.95h12.13l13.41.61ZM3593.2,1602.14l-9.58-3.06-12.45-14.07,14.69-6.73,7.34,7.34,10.54,7.64-1.6,6.12-8.94,2.75ZM3642.69,1852.88l-7.02-8.87-1.6-21.71,13.09-20.18-4.15-15.6-9.26-10.7-1.6-13.76,11.18-4.28,7.34,8.87,3.19,11.93,10.54,5.81,1.28,10.4,18.52,6.73v11.31l-6.39,10.09-13.09,4.89-13.41,6.42-2.55,12.54-6.07,6.12ZM3545.95,1927.19l-13.41-12.84,1.92-17.12,22.99-16.51,14.05-4.28,14.69-16.21,15.96-5.2,2.55-14.07,9.9-6.73,8.3,4.59,4.47,9.79-6.71,11.62-13.09,10.7-4.47,13.45-16.28,3.98-7.34,7.03-7.02,14.07-14.69,17.12-11.81.61ZM3320.22,1875.51c-1.92-.31-12.13-11.01-12.13-11.01l5.11-17.74s2.87-10.09,6.7-8.87c4.15.92,16.28,6.73,16.28,6.73,0,0,8.94-3.98,11.17-3.98,1.92,0,10.86.92,10.86.92l2.23,10.09-8.62,10.4-7.02,9.79-5.75,9.48-18.84-5.81ZM3038.29,1766.35l-22.67-14.07,3.19-13.45,12.13-15.9-7.34-20.49-2.24-14.68-7.34-29.36-.64-15.29.64-10.09.32-28.74,17.88-3.67,14.69-9.79,11.17-11.93h20.75l17.88-8.56,13.41-10.09,11.81-7.64.64-18.35,13.41,6.73,3.83-12.54,13.09-9.17,9.58-10.09,6.07-10.7h9.26l10.86,7.95,7.02,9.79s7.02-1.53,7.98-3.67c.96-1.83,4.79-18.96,4.79-18.96l8.62-10.4,13.73.31,5.11-6.42-5.75-6.12-2.87-6.73,7.66-4.59,12.77,8.26,7.02,5.2h19.16l17.56,1.22,1.92,11.31-13.73,11.62-8.94,7.03,3.51,11.01,18.52,7.03,13.73,13.15,14.37,7.95,11.81-6.42s8.94-11.01,8.94-13.45-1.92-17.12-1.92-17.12l-7.66-18.04s2.23-12.84,4.47-13.15c2.24-.31,7.98-7.64,7.98-7.64l5.43-8.26,12.45,3.06-2.55,11.62s-5.43,8.87-5.43,11.01,10.54,15.6,10.54,15.6c0,0,11.81,10.4,13.73,12.84,2.24,2.75,7.66,13.76,7.66,13.76v17.43s.32,14.98,0,16.82c0,1.83,7.34,9.48,7.34,9.48l10.54,4.28,5.11,9.48.32,10.09,14.05,4.89,5.75,8.56v9.17l8.62,12.54s7.98,5.2,7.98,7.03v11.62l-7.34,33.33,1.92,25.69-2.24,17.43-16.6,10.7-8.3,10.7-6.39,14.07-15.64,7.03-4.47,13.45s-5.11,14.07-7.02,15.29c-1.6,1.22-25.54,11.93-25.54,11.93l-23.31,7.64s-35.44-10.4-37.68-11.31c-1.92-.92-20.11-12.84-20.11-12.84,0,0,1.6-12.23,1.6-15.29,0-3.36-6.07-13.76-6.07-13.76,0,0-9.58.92-9.9-1.53-.32-2.75-.96-8.56-.96-8.56l3.83-3.67-2.23-7.34-6.39,2.75s-4.79,7.64-5.75,9.79c-.64,2.14-3.19,7.34-5.75,7.95-2.55.61-8.94.31-8.94.31,0,0-3.19-9.17-3.19-11.93,0-2.45-4.79-15.29-4.79-15.29l-23.31-11.01s-17.24-1.22-20.11-1.22-11.81,6.42-11.81,6.42c0,0-5.75,3.36-9.58,3.06-4.15-.31-22.99-2.45-22.99-2.45l-13.73,8.56-9.9,13.45-18.84,4.28-21.71.61-12.45-2.14-4.47,7.64-5.43,6.12-12.13-2.14ZM3144.29,1458.11l-2.24-5.2s.64-4.89,2.87-5.2c2.24-.61,7.98-3.36,7.98-3.36l4.47,2.75-2.24,6.12-4.15,3.67-6.71,1.22ZM3113.96,1440.99l-3.51-6.12,4.15-3.98,5.43-1.83,6.39,2.14h4.47c1.6,0,5.43.92,5.43.92l-.32,7.64-3.83,4.28-5.43,2.14h-9.58l-2.55,2.45s-3.19,4.89-4.15,5.5c-.96.61-9.9,5.2-9.9,5.2l-8.62.31.64-6.73s7.34-5.2,9.26-6.12c1.6-1.22,4.15-4.89,4.15-4.89l7.98-.92ZM3088.74,1440.68l-4.15-3.98.64-6.42,9.9-1.53,3.83,3.36-1.6,5.2-2.55,3.67-6.07-.31ZM3060.32,1439.76l-.96-5.2,3.51-5.5,5.75,1.83,7.02-.92,3.51,3.36-5.11,5.2-3.83-.61h-5.43l-4.47,1.83ZM3478.58,1405.21l-6.39-7.64,8.62-6.73,12.13,2.45-3.83,7.34-10.54,4.59ZM3466.77,1380.44l-8.3-6.12-1.6-8.87-6.71-6.12-2.87-7.03,4.79-3.67,12.77,6.12,7.34,13.76-.96,7.64-4.47,4.28ZM3437.71,1411.02l-15.33-6.12s-4.15-8.87-1.28-10.09c3.19-1.22,14.05-1.22,14.05-1.22l8.3-4.59,2.55-7.34,9.9,3.06s-2.55,7.03-2.87,8.87c-.32,1.83-6.07,10.09-6.07,10.09l-9.26,7.34ZM3275.84,1383.19l-13.09,3.98-6.07-4.28.64-9.48,4.79-.92,10.22.61,9.58-3.06s5.43-6.73,7.02-7.64c1.6-.61,10.22-10.7,10.22-10.7h10.54l11.17,3.67,15.64,8.56,14.69,6.73s9.26,1.53,11.17,1.83c1.6.31,12.13,1.53,12.13,1.53l2.87,3.98.96,5.81,11.17,5.2,8.94,11.01,11.17,8.87,1.6,10.4-1.92,7.34,11.81,10.7,14.37,5.2,9.58,5.2-2.55,7.64-11.17,3.67h-15.65l-12.13-5.5-10.22-13.76-12.45-11.01-11.81-7.03-9.58,8.56-6.71,7.64-13.09,5.81-15.01-6.73-13.41-3.67-16.92,3.36-2.87-7.03s5.75-4.89,8.62-6.42c3.19-1.53,5.11-13.45,5.11-13.45l-9.9-12.54s-9.58-5.81-10.54-7.64c-.96-1.53-8.94-6.42-8.94-6.42h0ZM3286.37,1355.06l-8.62,5.2-14.37.31-8.3-4.89,1.6-8.26,7.66-7.03,9.58-.61,12.13,3.67v7.03l.32,4.59ZM3204,1376.46l-3.83-3.67.96-6.12,7.02-5.81,14.05.31,5.43,8.87,2.24,6.42-10.54,3.06-3.51-3.36-6.07-3.67-3.51,1.83-2.24,2.14ZM3192.82,1358.73l-3.83-3.36,3.51-4.28,7.98.61,5.11,3.06-4.47,4.28-8.3-.31ZM3162.81,1360.56l-4.15-3.06,1.28-5.5h8.94l8.3-.31,2.55,4.28-3.51,3.67-6.7-.61-6.7,1.53ZM3192.5,1338.24l-4.15-6.42-7.02-5.2-.32-8.56,7.98-4.28s3.19-6.73,3.19-7.64c.32-1.22.96-7.34,1.92-7.64.96-.61,11.17,1.83,11.17,1.83v10.4s-.32,8.56-.32,9.79c-.32,1.22-1.6,10.09-1.6,10.09l-2.87,5.5-7.98,2.14ZM3102.47,1399.7l-1.28-6.12v-10.09l-3.19-6.73-4.79-9.48,4.15-7.34,4.15-6.42,2.55-12.23,4.47-11.31-1.28-4.89,5.43-8.26,8.62-2.45,5.75,2.45,11.17,3.98s8.3,0,9.26-.61c.96-.31,7.98-5.2,7.98-5.2l8.62.92,1.92,7.95-9.9,7.95s-10.22.92-11.81,0c-1.6-.92-10.54-4.59-10.54-4.59,0,0-8.3,0-9.58-.92-1.28-.92-6.39-3.67-6.39-3.67,0,0-2.87,3.67-2.87,4.59s.64,9.17.64,9.17l-1.6,5.5,5.11,6.73s5.11-.92,6.7-1.83c1.28-.92,8.62-6.42,8.62-6.42l8.62,1.22,2.24,5.5-2.87,8.56-10.86,5.2s-4.47.61-4.79,1.83c-.32.92,3.83,7.95,3.83,7.95l4.79,10.4,7.34,5.2,4.47,7.34v8.26s-8.94,3.06-10.22,3.06-7.34-6.12-7.34-6.12l-4.47-6.42-3.19-6.73s1.28-4.89,1.28-5.81-5.75-4.28-5.75-4.28c0,0-4.47,5.81-4.47,6.73-.32,1.22-.32,5.81-.32,5.81,0,0,4.15,7.03,4.15,7.95s-1.28,7.34-1.28,7.34l-9.9.92-3.19-4.59ZM3041.48,1375.24l-9.9-.31-9.26,3.36-14.37-6.12-7.98-7.95-3.83-10.7-7.34-4.89-1.28-10.09-8.62-7.64v-10.09l7.98-7.03,9.58.61,12.45.92,5.75-10.09,4.79-4.89s4.15-.31,6.07-.31,7.98-6.42,7.98-6.42l7.34-9.17,7.02-4.59,4.79-.92,2.23-8.26,2.87-6.73,9.26-3.06,3.19-7.03,10.86,3.98,15.96,3.98,8.94,1.83.64,6.12-5.11,6.73-6.07,7.95-13.09,5.5-.32,12.23,8.3,8.26,5.75,5.81-1.28,8.56-6.39,4.28-7.34,4.89-2.87,12.54-7.02,7.95-4.15,14.37.32,7.34-6.07,4.28-5.43,6.42-6.71-3.06-4.47-3.98-3.19-4.59ZM2952.72,1420.5l-1.28-7.03,6.39-7.95,18.2-3.06,14.05,3.67,15.64,1.83,13.09,1.22,10.86,6.12h9.9l4.15,7.95,7.02.92,4.47,1.83-.96,6.73-.96,5.81-7.66.61-9.26-2.75-7.34,2.14s-9.58.31-10.54.31-13.41-2.14-13.41-2.14l-4.79-4.89-9.58-2.75s-5.75.61-7.66.61c-2.23,0-8.94-1.53-8.94-1.53l-5.75-2.45-10.54-.61-5.11-4.59ZM2956.55,1363.62l-4.79-4.89-3.51-5.2.96-5.81,8.94.92s4.47,3.36,5.11,3.98c.64.92,3.51,4.89,3.51,4.89l5.75,3.06s-.96,4.28-1.28,5.2c-.64.92-3.51,1.83-3.51,1.83l-8.94-1.22-2.23-2.75ZM2958.79,1396.03l-7.34,3.98-4.47,5.81-6.7,1.22-11.49-10.4-7.98-12.23-7.02-8.56-11.49-12.54-11.49-16.51-8.62-7.95-1.28-10.09-4.79-7.03-12.45-20.49-10.54-5.5-10.22-9.17-10.22-3.98-5.11-9.17,9.9-2.75s6.7,2.75,8.62,2.75,8.94.92,8.94.92l6.7,7.64,6.7,3.67,9.58,3.06,7.02,3.36,8.3,9.17,4.79,6.73s12.45,5.5,14.69,6.73,10.86,6.12,10.86,6.12l1.92,8.87,3.19,11.62,6.39,9.17,7.02,8.56,7.66,2.14,5.43,7.64,2.23,6.12-.32,6.42.32,11.31,1.28,3.36ZM3165.68,1263.32l-13.41-8.87-4.15-9.48-4.15-3.98,4.15-6.42,5.75-7.03,7.34-7.34h10.22l7.66,3.98,2.55,9.48,4.15,7.03s-2.55,7.34-3.19,8.26c-.64.92-4.79,4.89-4.79,4.89l-5.11,2.45-3.51,4.59-3.51,2.45ZM3127.05,1251.7l-5.43-3.98,4.15-10.4,4.47-10.09,7.66-4.59,5.11,3.98.32,4.59-4.47,6.42-3.51,9.79-5.75,2.14-2.55,2.14ZM3159.62,1203.39l-6.39-1.83-.32-7.03,6.39-5.2,10.54-1.22,4.15,2.45-2.87,4.89-3.83,3.36-4.15,2.75-3.51,1.83ZM3149.08,1218.68l-5.75-2.75,1.28-7.64h10.54l-2.87,9.79-3.19.61ZM3138.23,1211.34l-7.98-.92s-4.15-4.59-4.15-5.81c0-.92.96-7.95.96-7.95l6.39-3.36,5.43,1.22,2.24,3.98,2.55,3.36-1.92,4.89-3.51,4.59ZM3082.35,1240.69l-9.58-3.98,2.24-14.68,13.41-14.07,4.47-9.79h7.02l2.87,7.64-3.83,7.34-4.47,8.56-4.79,7.95-3.51,6.12-3.83,4.89ZM3147.8,1191.15l-10.86-7.34-8.62-5.5.96-7.03,3.83-6.12,11.49-.31,8.3,6.73,4.47,9.79-6.39,3.98-3.19,5.81ZM3123.22,1192.38l-7.66.92-11.49-3.98-7.98-7.95,6.39-7.64,13.73,3.67,5.43,7.95,1.6,7.03ZM3123.22,1164.55l-17.56-2.14-3.19-5.2-9.9-3.67-.96-13.15,7.98-5.5,4.79-14.68,3.51-10.4,10.54-4.59,6.39,7.34,7.02,15.6-1.6,10.7-1.6,7.64,2.55,7.64-4.79,8.26-3.19,2.14ZM3102.15,1070.98l-11.18-8.26-2.55-12.23,5.11-14.68,7.66-6.42,7.34,4.28s3.19,6.12,3.19,7.95,2.55,16.51,2.55,16.51l-3.51,7.34-8.62,5.5ZM2975.39,1125.41l-3.51-11.01,8.62-18.35,9.58-1.53,5.75,9.48-5.75,15.6-7.34,6.12-7.34-.31ZM3213.58,939.18s-3.19-2.75-3.19-3.67.64-8.26.64-8.26l6.7-3.06,6.71,1.83-.64,8.26-5.75,3.06-4.47,1.83ZM3188.35,945.61l-3.83-2.75-7.02-1.22-3.83-6.12s3.83-8.56,4.79-9.17c.96-.61,11.17-10.09,11.17-10.09l8.62-1.83,6.07,9.17.32,6.42-1.92,11.62,1.92,6.73-2.55,5.81-6.7,2.14-5.11-5.2-1.92-5.5ZM3275.2,819.93l10.86-.31s2.23,6.42,2.55,7.95c.32,1.83.96,9.79.96,9.79l9.9,7.64,2.87,5.2-6.71,6.12-6.39,2.14-.96,4.89-.32,2.45,3.19,2.75,4.47,7.95-3.51,18.04-7.34,6.73-5.11,3.98-2.55,6.42-8.62-3.06-6.7,1.83h-5.11l-8.94-5.81-7.02,3.36.64,6.42-2.24,3.98-8.62-4.28-2.87,4.59-5.43,1.53-8.3-1.83-3.51-3.98-9.58-4.59-2.23-5.2,7.98-3.06,8.3-8.56,9.26-4.28,7.98,1.22,8.3.31,6.07-16.82,9.9.61s7.98,3.98,8.94,1.83c.96-2.14,3.51-16.51,3.51-16.51l-1.28-12.54s7.02-2.75,7.34-5.2c.32-2.75-4.47-10.4-4.47-10.4v-7.03l4.79-4.28ZM3266.58,811.36l-6.7-11.93,11.49-17.43.32-15.9-2.87-7.64,5.43-9.17,6.07,3.06,1.6,13.76,6.07,5.5,15.01,3.98s11.49-.61,12.77,1.22c1.28,2.14,1.92,13.45,1.92,13.45l-7.02,11.93-7.98,8.26-6.71,3.06-4.15-8.26-10.22-.92-5.11,2.14-9.9,4.89ZM3277.11,719.63l-12.13-5.81-7.02-8.56,3.51-8.56-7.02-9.79-2.55-10.4-1.6-16.51-7.66-10.09v-12.54h11.49l4.15,13.45,2.24,8.26,14.69,11.01,3.83,5.2-4.47,3.67-4.79,1.22,2.55,10.09,7.98,9.79,6.07,6.73-2.87,8.87-6.39,3.98ZM3491.03,363.38v-7.03l15.01-11.93,17.56,4.28-1.6,10.7-5.43,6.42h-19.16l-6.39-2.45ZM3157.7,285.71l-9.26-7.64,2.87-7.95,11.49,3.36s11.17-.92,13.09-.92,11.17-.31,11.17-.31l8.94,5.81-1.6,8.26-9.58,6.42-18.2.61-8.94-7.64ZM3098.63,285.71l-6.7,6.73-19.8-1.22-15.33-12.84-.64-13.76,17.88-4.89,13.09,9.48s7.34,3.67,8.94,3.06c1.92-.61,6.39-10.4,6.39-10.4h12.77s7.34,9.48,8.94,11.62c1.6,2.14,12.77,5.81,12.77,5.81l-2.55,11.93s-7.02,2.75-8.94,3.06c-2.24.31-18.52,1.53-20.75.31-2.24-1.22-6.07-8.87-6.07-8.87h0ZM2659.3,185.41l-13.09,4.89-8.94,3.98-8.94-7.95-10.54-7.03-.32-7.64,17.88-7.03,7.02-8.26,9.26-5.2s8.94,7.95,10.54,8.56c1.92.92,6.07.92,7.02,3.06,1.28,2.14-1.28,18.35-1.28,18.35l-8.62,4.28ZM2697.3,213.24h-16.6l-15.01-2.14-13.09-6.73,5.11-8.26,9.26-2.14,6.39-11.31,7.02-3.36,8.94,3.98,10.86,9.79-.96,7.34,6.07,4.28-4.47,6.12-3.51,2.45ZM2744.23,220.88l-10.86,8.26s-15.33.92-16.28-.92c-.96-1.83-9.26-6.73-9.26-8.56,0-1.53,4.15-11.31,6.7-13.45,2.23-2.14,3.83-11.62,3.83-11.62l7.66.92,5.43,3.36,7.98,3.06,7.66,1.83,1.6,15.29-4.47,1.83ZM1968.69,393.96l-7.66-5.2,3.19-9.48h8.62l3.51,3.98,5.11.61s3.19-2.45,5.75-2.45c2.55.31,9.26.31,9.26,1.53s-1.6,5.81-1.6,6.73c0,.61-2.87,4.28-4.15,4.59-1.28.31-9.58-3.36-9.58-3.36l-2.24-3.98s-2.87-1.83-2.87-.61c-.32,1.53.32,5.2.32,5.2l2.55,3.06-2.24,7.03s-2.23,4.28-3.51,4.28-4.15-1.22-4.15-1.22l-1.28-3.98.96-6.73ZM1956.88,399.46l-10.22,4.28-9.9-2.14,1.28-6.42,8.94-4.89,6.7.92,1.28,3.98,1.92,4.28ZM2268.5,403.13h-7.34s-2.24-5.5-2.24-6.12c0-.92,5.75-12.23,5.75-12.23l10.22-.31,1.6,7.34-3.19,7.64-4.79,3.67ZM2341.29,360.02l.64,7.03-7.98,4.28-14.05.92-13.73-3.98-4.79-12.54-7.66-5.5-3.83-8.56v-16.51s7.02-6.73,8.94-7.95c2.23-1.22,8.94-8.87,8.94-8.87l5.43-2.14.96-13.45,1.92-7.64,18.52-3.36,5.75-7.95,10.22,1.83,7.34-10.4,12.13-1.83,15.33,2.14,15.33-6.12,9.58-7.34,8.3-4.89,13.09,4.28,7.02,6.73s-3.19,4.59-4.47,5.2c-.96.92-11.17,4.59-11.17,4.59,0,0-17.56,2.75-18.84,2.75-1.28.31-23.95,9.79-23.95,9.79,0,0-16.92,6.73-18.52,8.87-1.92,1.83-16.6,17.74-16.6,17.74l-14.69,8.87-6.07,12.84-1.28,8.26s3.51,7.95,4.47,8.87c.64,1.22,7.98,8.26,7.98,8.26l3.19,4.89,2.55.92ZM2679.73,1267.3l-7.66-1.83-8.3-11.93-.32-11.31s.64-9.48,1.6-10.7c1.28-1.22,8.3-11.31,8.3-11.31l6.39,2.14,6.07,8.26,3.83,9.48.64,9.17-.96,8.87-3.83,6.12-5.75,3.06ZM2289.57,1648.92l-7.02-5.81-12.45-3.67s-2.23-11.62.32-13.45c2.55-1.53,3.83-10.7,3.83-10.7l-12.45-4.59-.96-11.62,9.9-8.56,7.98-12.54,1.6-9.79-8.62-13.15,4.79-18.35,13.09-13.76,8.62-6.42,5.75,8.87,4.79-7.95,8.62-12.54,9.58-14.37.96-12.84,10.54-3.06,4.47,12.54,2.87,7.34,6.07,8.26.64,11.62-2.87,11.62-3.51,4.89-2.23,11.31-4.15,5.81,1.6,9.48-1.92,6.73-4.47,4.89-7.34,3.67-.64,7.34,2.87,9.79s-1.6,3.98-1.92,5.81c-.32,2.14-5.11,12.84-5.11,12.84l-1.92,11.01-4.15,7.64-1.92,5.81-5.43,3.67-6.7,5.81-7.02.92-6.07,5.5ZM2140.78,910.44l.96-8.87,8.62-3.36,7.34-1.83,4.47,1.22,1.6,3.36-2.55,4.28-6.7.92-7.34,3.06-6.39,1.22ZM2054.58,888.12l1.28-9.48,15.33-1.22,9.26,4.89-5.43,4.89-10.86.61-9.58.31ZM1900.04,814.12l2.87-10.09,7.34-.61,3.51,10.09-3.83,6.12-7.66,2.45-2.24-7.95ZM1901.96,852.65l-14.69-7.34.64-12.84s8.3-4.28,10.54-4.28,8.62-1.22,8.62-1.22l1.6,7.95s-2.23,1.83-3.19,6.12c-.96,4.59-3.51,11.62-3.51,11.62h0ZM1760.84,730.33l.32-10.09,20.43-1.83,7.34-6.73-.64-8.87,8.3-2.14,4.79,4.59,8.94-2.75,14.37-10.09,5.43-11.62,18.52-.61,3.51-18.35,12.13-3.98,4.79-5.5,14.05-3.67,12.13-2.14,1.92-10.09-2.55-13.45-12.13-8.87.96-13.15,16.28-4.28,1.92-9.17-7.02-3.67,3.83-6.73,9.26-2.14,4.79,6.42-.32,5.81,5.75,7.95s-1.6,8.26-1.6,9.79-7.98,10.4-7.98,10.4l-.96,7.95,6.7,11.01,6.07,7.34h11.49l7.98-3.06,8.94,1.83,11.49-3.36,14.37-9.79,7.98,1.22,7.66,4.59,12.45,2.75,7.98-9.79,6.7-18.65,1.92-10.4-1.92-11.31,7.02-8.87,8.3,6.12,4.47,6.42,9.26.31,3.19-9.17-9.58-6.73-3.83-7.03,11.17-8.56,11.17-6.73,8.94.92,4.15,5.81,8.94-1.53,4.47-3.06-4.79-12.54-10.22-7.03s-8.94,4.28-9.26,5.2c-.32,1.22-10.22,8.56-10.22,8.56l-17.24,2.45-7.02-5.5-8.3-11.62-5.43-12.84.64-10.7,3.19-17.12,9.9-3.98,8.62-6.73,2.87-8.56,3.83-7.03,8.94-.31,2.24,1.22,3.19-4.59-1.28-5.2-14.69-8.26h-8.94l-8.62,2.45-3.83,5.5-2.55,11.62s-.96,7.95-.96,9.17-5.75,8.56-5.75,8.56l-9.58,7.95-11.49,3.67-9.26,3.67-4.47,8.87-.32,7.95,7.98,15.29,11.49,11.93,1.6,9.48-4.79,11.93-12.45,7.95-4.47,5.2,2.24,11.62-5.75,7.95-11.18,11.01-7.34,7.03-12.45-3.67-7.34-19.26-5.43-16.21-8.3-11.62-12.45-1.22-14.69,3.98-15.01,11.62-12.77-6.73-2.23-14.07,4.15-8.87-2.24-10.7-10.86-6.73-1.6-15.9,14.69-12.23,19.16-5.5,4.47-4.89,10.86-2.14,1.28-13.45,12.77-.31,2.23-15.29,13.73-7.03,2.23-15.29,15.64-19.88,12.45-9.48h15.01l10.86-7.03h7.98l7.66-5.81,3.19-7.95,8.62-1.22-1.92-10.4-4.15-9.17,9.9-6.73,7.66,5.81,11.17,2.75,7.34-2.45.32-11.01,12.45-2.14,3.83,5.5,4.79-2.14,5.75,2.75,6.7,3.06,8.62-4.28,9.9,1.53,3.83,3.06,2.23,6.73,9.58,5.2,22.99,8.87,20.43,9.79,27.78,12.54,8.3,5.2,2.23,11.62-7.98,10.4-16.28,5.81-16.92-1.83-13.41-7.34-5.11,3.36,4.15,12.54,7.02,15.6,9.58,14.07,8.3,7.64,5.75-4.89-4.47-8.56-1.28-6.73,7.98-4.28,9.58.92,6.39,7.34-2.23,9.17,9.58-.31,2.55-11.93-4.15-7.64-2.87-7.95,7.02-5.5,13.41-6.73,11.17-1.53,4.15,9.48,5.75.61,3.83-6.73-2.23-11.01-5.43-11.93-9.26-7.95,3.51-7.34,10.54-2.14,8.3,5.2,4.47,4.89,1.28,12.54,3.19,7.03s8.62,1.83,10.54,1.83,10.86-7.03,10.86-7.03l17.88-17.43,15.96-2.45,5.75-2.75,7.98,5.81,11.49-6.12,11.49-2.75s1.92,2.75,4.47,2.75,12.45-10.7,12.45-10.7l7.98-1.53,3.19,12.23,9.26,4.28,5.11-8.26-6.7-7.95-3.19-5.2-2.87-3.67-7.02,1.22-9.9-.31-11.17-1.53.96-6.12,8.62-7.34s12.45-.92,13.41.31c.64,1.22,5.11,6.73,5.11,6.73,0,0,4.15,3.36,5.43,3.36s6.71-2.45,7.98-2.45,13.09,1.53,13.09,1.53l14.05,2.14,13.09,7.34,7.34,9.48,7.02,7.95,10.22,6.73,8.3-1.83s1.6-5.5,1.6-6.42c0-1.22-7.66-9.17-7.66-9.17,0,0-5.11-7.34-5.43-8.26-.32-.61-9.26-11.93-9.26-11.93l-6.39-3.67-.64-10.09s2.87-7.64,5.11-7.64c1.92,0,8.62-2.14,8.62-2.14l3.83-12.54v-13.45l3.83-9.17,8.3-5.5,14.69,3.67,7.98,14.98,1.28,19.57,5.75,18.65,7.34,20.18,5.43,12.23-3.19,18.04-6.7,9.79-13.41,2.14-5.75,9.17,5.43,6.12,15.64,1.22s9.58-5.5,10.22-7.34c.64-1.53,5.75-13.45,5.75-13.45l5.11-15.6,7.98-10.09h8.62l5.11,7.34,8.3,9.17,4.47,9.48h9.58s3.51-3.36,2.24-6.42c-1.28-3.06-8.3-8.87-9.26-11.01-.96-2.45-7.02-11.93-7.02-11.93l-7.34-6.12-9.58-3.98-4.15,6.73h-8.3s-4.15,2.14-5.11-.31c-.96-2.75-2.87-8.87-2.87-8.87l-3.51-21.41-9.26-8.87,1.6-19.26,13.73-10.4,1.6,11.93,1.28,12.23,9.9,8.26,10.54,6.12,2.55-6.12-4.15-11.01,6.39-9.79,12.13,1.83,6.07,10.09,14.69,5.5s4.79,3.36,5.43,4.89c.64,1.83,4.47,8.87,4.47,8.87l4.79-4.28-3.51-12.54-9.26-9.48-10.86-5.5-5.75-7.34,3.83-14.68s10.86-5.2,12.77-5.2,14.05,3.67,14.05,3.67l18.52,1.83,7.02-4.28-4.47-9.17-11.17-3.67-.64-9.17,12.45-5.81,12.45-5.2,17.56-.92,11.18-.92,10.22-8.56,15.01-1.53,9.58,8.56,9.26-6.12h12.13l17.88,4.28,6.07-5.2-2.87-13.15,4.15-14.98,19.8-5.2,13.09,9.48,13.73,15.6,18.52-1.22,14.05-6.42,15.96,5.81,13.41,6.73,8.3,11.31-5.43,12.54-14.69,11.62-8.94,8.26-18.52,6.73-12.45,9.48,5.11,8.26,11.49-5.2s14.69-8.56,16.6-9.48c1.92-.92,16.6-4.89,16.6-4.89l27.14.61,33.21.61,22.03,4.59,18.52,11.93,11.81.61,5.11-11.62s5.75-6.73,9.58-6.73h24.27l15.64,5.81.64,9.17-6.7,5.81-4.47,7.64,13.73,9.79s7.98.92,14.37,3.06c6.39,2.14,17.56,1.83,17.56,1.83l4.47-8.87s6.71-6.73,8.62-5.2c2.24,1.53,6.39,8.26,6.39,8.26,0,0,6.39,2.14,10.54,1.83,4.15-.31,11.81-3.06,11.81-3.06l29.37,5.5,7.98-5.81-6.7-12.23,14.05-11.31,20.75,10.09,17.24.61,6.7,9.17,20.12-4.59,17.88,1.22,21.39,16.51s15.33,4.59,19.16,4.59c3.51,0,18.2-1.83,22.67-1.83h23.95l15.33,6.42,14.05,15.29,16.6,9.48,10.54-8.26,23.63-1.22,25.86,1.83,9.26,5.81,12.13-5.2,3.19-10.09,15.33-1.22,23.31,2.45,11.49,1.83,13.09,7.03,20.75,5.2,14.69,3.06,8.62,9.48,11.17,5.81,22.03,1.83,5.43,9.79,13.73,3.98,2.87,11.93,6.39,2.75,4.47-7.34h13.41l9.58,3.36,26.18,1.22,1.92,9.79-10.86,10.7-10.54.61-1.92,8.56,5.11,7.95-1.6,10.7-7.66,1.22-9.26-2.14-3.83-9.79-9.9-2.14-7.66-1.53-5.43-7.34-13.73-1.22-9.26-2.45-3.83-7.95-1.28-10.09-10.22-1.83-4.47,5.81,4.47,8.87,3.83,4.89-6.7,7.64-11.49,5.2-3.19,6.12,12.45,5.81,17.56,8.87,5.11,12.23-4.79,8.87-6.71.92-9.26-5.2-8.94,1.22-7.02,6.12-6.07,2.14-11.81-.92-8.3,11.93-6.7,17.12s-3.19,11.31-6.71,8.56c-3.83-2.75-9.9-9.79-9.9-9.79l-11.81-10.09s-14.05,5.2-15.65,6.42c-1.92,1.22-17.24,7.34-17.24,7.34l-12.13,9.48-1.28,11.93,4.79,12.23,10.86,13.45,5.11,6.12-5.11,6.42v12.23l-1.28,10.7-5.75,1.22-3.83,2.75-4.79,15.9-5.75,12.84-5.43,11.62-6.39,5.2-7.98-7.34-7.66-11.93-8.62-22.93-8.3-10.09-2.55-21.71.96-18.04,12.77-21.71,19.48-16.51,13.41-12.54,3.83-10.7-2.87-11.31-9.9-1.83-3.19,4.89-8.62,13.15-7.34,2.14-8.94-10.4-9.26-4.59h-13.09l-10.86,3.98-3.83,9.17-2.23,11.31-3.83,16.51-16.6,6.42-11.81-2.75-8.62-11.62-9.58,1.83-5.75,7.64s-7.02,5.2-10.22,4.28c-3.51-1.22-15.96-6.42-15.96-6.42,0,0-13.73-1.22-15.96-.31-2.23,1.22-13.09,3.36-16.28,3.67-3.19.31-14.69,5.5-14.69,5.5l-5.75,9.17-10.54,20.18-11.17,14.98-10.22,7.34.32,9.17,11.81,4.89,4.79,3.36,2.87,8.26,6.07.92,6.71-6.12,10.54-.31,9.26,5.81,11.81,13.15v12.84l-.64,16.82-1.92,10.7,5.11,14.98-4.15,19.57-11.81,26.91-9.26,25.38-18.84,8.87-19.8.92-12.13,8.87v10.7l-10.54,15.9-16.6,9.79-.32,7.34,13.73,7.03,11.81,13.45,12.13,14.37v11.93l-2.23,14.68-12.13,4.28-12.45,2.14-7.02-6.42v-10.4s-1.92-6.73-3.51-9.17c-1.28-2.75-5.43-6.73-5.43-9.17s-4.47-8.56-4.47-8.56l-10.54-5.5s-10.54-4.89-9.9-6.73c.64-1.83,4.79-3.98,7.02-6.12,2.55-2.45,4.79-3.06,4.15-7.34-.64-4.59-9.58-8.87-9.58-8.87,0,0-3.83,3.06-7.66,5.2-3.51,2.14-12.13,4.59-12.13,4.59,0,0-13.41,4.89-14.37,2.75-.64-2.14-1.92-6.73-1.92-6.73v-9.79l-7.02-3.98-3.51,3.36-10.54,7.95-9.58,9.17,1.6,13.76,9.58,10.7,12.13-5.5s7.66-4.89,11.81-4.89c4.47,0,12.13,3.67,12.13,3.67,0,0,2.55,5.2,2.87,7.03.32,1.83-2.23,10.7-2.23,10.7l-16.28,4.28s-8.3,7.64-7.98,9.48c.32,2.14,7.66,13.15,7.66,13.15l25.86,33.03,1.28,17.74,8.3,21.1-8.94,18.96s-10.22,6.73-11.49,8.26c-1.28,1.83-6.39,14.37-6.39,14.37,0,0-16.28,20.18-17.24,22.32-.96,2.45-6.71,9.79-9.26,11.31-2.55,1.53-10.54,3.06-13.41,3.36-3.19.31-26.5,1.22-26.5,1.22l-13.09,11.31-19.8,11.62-4.15-11.01-8.62-3.06-4.15,13.45-15.33,7.64s-7.02,3.06-6.39,8.87c.64,5.81,12.45,20.49,12.45,20.49l26.82,26.6,9.9,25.69-11.81,26.6-16.28,17.43-14.37,14.07h-12.13l-1.92-14.07-6.07-12.23s-11.17,3.36-12.13,0c-1.28-3.67-2.55-4.59-2.55-10.09,0-5.2-1.92-15.29-6.07-15.9-4.47-.61-19.8,1.83-19.8,1.83,0,0-1.92,14.68-1.28,18.35.64,3.36,11.17,21.71,11.17,21.71l2.24,11.62,6.07,6.73,14.05,6.12,8.94,11.93,9.58,19.57-.96,18.04.32,14.37-10.22,3.98-9.9-4.28-11.17-11.62-14.69-16.82-5.75-23.85-.64-18.96-3.51-13.15-14.37-16.51-9.58-16.51v-14.68l-8.94-11.31,3.83-15.29-.32-16.82-9.26-11.01-6.39,13.45-12.13,7.64-8.3-8.26s-2.87-12.54-2.87-14.68c0-1.83-2.87-17.74-2.87-17.74l-11.49-14.07-10.86-14.68-5.43-15.9-1.6-9.79-9.58.92s-5.75,8.56-6.07,10.4c-.32,1.53-3.83,12.84-3.83,12.84l-13.09-.31-10.22.92-2.55,7.95-2.87,8.87-9.9,11.93s-10.22,4.59-12.45,6.12c-2.23,1.53-6.7,9.79-9.26,11.62-2.24,2.14-8.3,2.14-8.3,2.14l-5.11,6.42s-1.92,5.5-3.19,7.34c-.96,1.83-4.79,3.98-8.3,5.2-3.19.92-12.77,5.81-12.77,5.81l-2.55,15.29,2.55,14.68.64,16.51-2.23,14.07-.32,8.87-14.05,14.37-7.66,8.56-8.3-4.59s-3.83-10.4-4.47-12.54c-.64-2.45-8.94-25.99-8.94-25.99l-11.17-18.65s-6.39-15.6-8.62-21.1c-2.55-5.2-12.13-18.35-12.13-18.35l-2.55-29.97-.64-18.35.32-14.98-6.7-3.36-4.15,5.81-9.9,4.89s-14.69,0-15.96-2.75c-1.28-2.75-6.71-8.26-6.71-8.26l-1.92-6.73-.96-7.34-7.34-7.64-8.62-5.81-9.58-6.42-2.55-7.03-2.87-1.83-11.17.61-11.81,2.75-9.58-9.17-6.71-4.28-3.51,9.17h-19.8l-19.8.92-11.49-6.73s-4.15-8.87-5.75-11.31c-1.6-2.14-2.55-6.12-5.75-6.42-3.19-.31-8.3,1.83-8.3,1.83l-8.3,2.14-21.71.31s-8.94-4.59-10.54-6.73c-1.28-1.83-11.17-12.84-11.17-12.84,0,0-6.07-1.83-6.07-6.73s1.28-9.17-.32-11.01c-1.92-1.53-7.66-5.2-7.66-5.2l-3.51,4.28-6.07-2.75-4.79-2.45-6.39,3.98,1.92,8.87,11.17,10.4,8.62,14.07,8.62,12.54,11.17,6.12,4.47,12.54,3.83,5.81,9.9,3.67s5.11,2.14,8.3,1.22c3.51-.92,11.49-2.14,14.05-5.2,2.24-2.75,9.58-10.4,11.49-10.7,1.92-.31,7.34,4.89,7.34,4.89l3.19,6.42,10.86,6.42,8.3,1.83,11.18,9.48,1.92,15.29-9.26,12.84s-5.43,4.59-5.75,6.42c-.32,2.14-2.87,18.04-2.87,18.04l-32.89,17.43-9.9,10.7-15.33,3.06-5.43,13.45-14.69,1.83-14.69,5.2h-25.22l-15.96,17.43-17.56,6.12-10.54-16.51s2.55-17.12,0-21.1c-2.55-4.28-10.54-14.07-12.13-18.35-1.92-3.98-6.39-15.9-6.39-15.9l-26.18-41.59-10.54-26.3-23.31-26.6,1.28-18.04-15.33-10.09-12.77-1.22-8.62-15.9-12.45-4.59-.64,9.79,11.17,18.35,22.03,14.68,9.9,22.93-2.55,18.65,10.54,15.29,9.58,9.48,2.55,12.23,8.62,19.57,15.96,22.93,4.15,16.82,15.01,6.12,8.94,16.82s3.19,13.15,3.83,16.51c.64,3.67,9.26,14.68,9.26,14.68l30.65,10.7,15.96-4.89s10.86-4.59,15.33-4.59c4.15,0,18.2-11.01,18.2-11.01l9.9.31,3.83,9.48-7.02,19.88-18.84,36.08-3.19,17.43-11.49,14.68-22.67,24.16-21.71,13.45-16.92,25.99s-15.33,13.45-16.6,16.82c-1.28,3.67-6.71,13.76-6.71,13.76l-.64,16.51-4.15,8.26,8.62,14.98-1.6,16.51,4.47,16.82,2.23,5.2,4.79,50.15-9.9,13.15-6.07,10.4-15.01,1.53-12.13,11.93-5.75,13.45-10.54,1.22-2.24,3.36-4.79,19.57,2.24,13.76,1.28,15.9-3.51,17.74-9.58,7.64h-10.22l-2.87,11.93-.96,14.07-2.55,12.23-13.09,4.89-4.79,11.93-.96,11.31-24.9,12.54-8.62,15.9-8.3,4.28s-11.49-.92-13.41.31c-1.6,1.53-10.86,10.4-10.86,10.4l-13.41-2.45s-2.87-4.59-6.39-3.98c-3.19.61-13.73,3.67-13.73,3.67l-13.73,12.84s-16.6-.31-17.56-2.14c-.96-1.83-8.3-9.79-8.3-11.62,0-2.14,1.28-14.68,1.28-14.68l.96-11.31-7.66-7.64-3.51-9.48-6.39-7.95-3.19-15.29-6.7-10.4-7.98-5.2-5.11-16.51s-.64-23.85-.32-25.69c.32-1.83,1.6-15.6,1.6-17.12,0-1.83-11.81-24.16-11.81-24.16l-15.33-21.41-2.87-4.89.64-33.64,2.55-17.74,7.98-14.37,10.86-11.31,3.51-11.31-5.11-13.15-5.75-15.6-4.79-12.23-7.34-16.82s2.55-10.4,2.55-11.93c0-1.83-6.7-12.23-6.7-12.23l-10.86-8.26-6.7-7.95-9.26-15.9-3.19-13.15,7.66-6.42-.64-16.51v-13.76s6.39-3.98,6.39-5.81-10.86-11.01-10.86-11.01h-12.77l-15.96-.31-6.7-7.03-5.43-7.95-1.6-10.09-8.94-6.12-7.66-.61s-6.07,3.06-7.98,3.36c-1.92,0-16.28,3.06-18.2,4.28-2.23,1.22-9.9,2.14-11.49,4.28-1.6,2.45-6.7,5.81-8.62,6.73-1.92,1.22-3.51,3.36-6.39,3.36s-8.62-.61-10.86-.92c-1.92-.31-27.78-3.67-27.78-3.67h-7.66s-11.49.61-11.49,3.36.96,4.89-1.6,7.34c-2.87,2.45-4.15,5.2-8.62,4.89-4.79,0-4.47,0-6.7-.92-2.55-1.22-7.98-1.22-8.62-3.06-.64-1.83-9.9-13.15-9.9-13.15l-15.64-21.41-19.16-17.12s-9.9-10.4-10.86-11.93c-.96-1.83-4.15-5.2-4.79-7.34-.32-2.45-2.55-11.01-2.55-11.01,0,0-1.28-4.89-3.51-6.12-1.92-1.22-12.13-4.28-12.13-4.28l-2.55-11.01,2.87-7.64,5.43-3.36-12.45-11.62-1.28-8.87,9.9-5.2,5.43-8.87s1.28-15.6,1.28-18.04c0-2.75-3.51-15.6-3.51-15.6l-.96-33.64,3.19-11.62,11.81-29.66,8.62-12.54,10.54-17.43,15.96-4.89,14.69-16.82,6.7-22.32-1.28-19.57,15.33-12.84,13.09,2.45,7.98-13.15,12.13-10.4,12.13,3.06,17.24,3.98,9.9-11.62,15.96-1.83,6.7-6.42,31.93-3.06,12.13-8.26,20.43,6.42s7.98-.61,13.41-1.53c5.43-1.22,14.05-6.73,14.05-6.73l19.8,10.7v14.68l-8.62,11.62s1.28,8.87,4.79,11.93c3.83,2.75,18.52,9.79,18.52,9.79h16.6l8.94,8.26,5.75,5.5,13.41,3.98,10.86,4.59,12.45,4.89,15.33-3.06,1.92-22.93,15.96-3.36,16.92,9.79,15.33-.31,3.83,9.79,24.58-2.45,7.98,11.31,15.96-4.59s9.58-6.73,15.33-5.5c5.43,1.22,12.13,3.67,12.13,3.67,0,0,4.47.61,12.77-5.2,8.62-6.12,13.09-14.37,13.09-14.37,0,0,2.55-12.84,2.55-22.32s-2.55-18.65-2.55-18.65l-15.33-5.81-11.17,1.83-10.86.31-10.54-6.42-12.77,6.42-18.52-12.23-20.75-24.77,21.07-25.69,3.19-7.64,21.71,2.75,18.84-10.4,22.03-3.98,20.43,12.84,12.45,6.42h16.92l15.33-1.22s10.22-7.64,10.22-10.4c0-3.06.96-9.17,0-11.31-.96-2.14-10.54-9.79-10.54-9.79l-14.37-3.06-10.22-6.73-6.7-10.7-9.58-3.98-6.07-7.65,9.9-9.17s.96-1.83,4.47-2.75c3.83-.92,7.66-3.06,7.66-3.06l-5.75-9.17-6.07,1.83-9.58,3.36-12.13,2.75-8.94,5.81-5.11,4.89,1.92,7.64,15.33,3.06-.64,7.03-19.16,6.73-17.56,2.14-3.83-3.98v-8.26l12.45-7.34-4.79-8.26-6.7-3.67v-9.17l-6.07-2.75-3.83.92-5.75,9.17s-.32,9.79-1.28,13.15c-.96,3.06-4.47,7.95-4.47,7.95l-11.17.61s-4.47,3.67-5.43,5.81c-.96,1.83-3.83,6.42-3.83,6.42,0,0,.32,6.73.32,9.48v7.34l-6.39,6.42-.96,10.09,2.24,12.23-9.26,3.36-11.17-2.75h-7.66l-5.43,7.34-6.7,4.28-1.28,5.81,13.09,10.4-3.19,5.81s-6.39,3.67-6.39,6.12v7.34l-3.83,2.75h-8.94l-9.26-4.89-3.19-14.37-3.83-10.4s-7.98-9.79-8.3-11.93c-.32-1.83-4.15-12.54-4.15-12.54l-7.34-2.75.32-9.79-10.54-11.93-8.3-6.73s-7.66-2.45-9.9-3.36c-1.92-.92-5.43-2.14-6.7-4.59-1.28-2.14-4.15-6.73-4.15-6.73l-7.02-7.64-1.6-7.34-3.51-6.12-7.34-2.45h-6.39l-1.92,7.34v7.34s3.51,8.26,6.39,12.23c2.55,3.67,15.65,20.18,15.65,20.18l4.47,7.95,11.17,2.75,6.7.61,5.75,5.5s5.75,3.98,7.34,6.42c1.6,2.45,10.86,13.45,10.86,13.45l-1.92,7.03h-7.02l-4.47-1.83-4.47.61.96,5.5-1.92,7.34-3.19,3.06-8.62,3.06-1.92,9.79-2.23,4.59-6.07-.61-7.66-2.14-6.7-3.98-2.55-6.73,12.77-.61s7.34-1.53,8.62-4.28c1.28-2.45.96-3.06,2.55-5.5,1.6-2.45.64-9.17.64-9.17l-10.22-9.48-5.75-10.4-8.94-3.67-9.9-3.98-11.17-13.15-8.3-5.81-2.55-11.62-7.34-6.12-5.75,1.83s-.64,3.06-8.3,3.98c-7.66.92-9.26,2.75-9.26,2.75l-3.51,10.4-8.94-4.89-5.43-6.42-16.28,2.75-8.94,6.12.96,12.23-16.28,18.96-21.39,11.62,1.28,11.31,4.15,2.14v9.17l-3.51,5.2-9.9,4.89-2.55,10.7-10.54,1.22-14.69-3.67-12.77,5.2-8.3.92-5.43-8.56s-5.75-2.14-8.62-1.84c-3.19.31-10.22.92-10.22.92l-12.77-5.81-1.28-9.48-8.3-9.17s-1.6-9.17.64-10.09c1.92-.92,9.26-4.59,9.26-4.59,0,0,2.87-9.48,2.87-11.01,0-1.83-.32-9.79-.32-9.79l4.47-7.95-3.19-10.4,3.51-11.01,9.58-7.03,15.64-.61s15.96,9.48,17.88,10.4c1.92.92,7.34,2.75,10.86,3.06,3.19.31,15.64-1.22,15.64-1.22l2.87-11.31v-12.84l1.6-7.03,1.92-4.28-4.15-11.62-4.15-9.79-10.22-4.59-12.77-2.75ZM1717.73,381.73l-2.55-7.95,3.51-13.76,8.3-4.28,9.9,4.59-4.15,15.29-15.01,6.12ZM1792.45,554.5l-4.79-3.98.32-7.64,3.19-4.89,4.15.31,3.19,1.53-.32,11.01-2.24,2.75-3.51.92ZM1780.63,567.95l-2.55-3.67,1.28-3.36,4.79-.31.96,2.75-2.55,3.36-1.92,1.22ZM1751.26,704.03l-1.92-8.87,22.67-14.07-1.28-4.28-12.77-2.45.96-4.59,7.34-3.36-5.75-8.56,2.87-9.17,13.73-.31.64-9.17-7.66-9.48-13.73-2.45-1.6-6.73-10.22-10.7,4.15-4.89,5.43-2.75-5.11-6.12-4.47-5.5-7.02,2.45-6.7-7.95,1.92-9.48,6.39-3.67,5.11,6.12.32,6.42,6.39-3.06,4.47-7.65,5.11-3.98,10.22,1.22,1.28,6.73-.32,5.5,9.58-.61,4.79.31,4.47,5.81-.96,5.5-7.02,2.75-.64,4.28,4.15,4.59,8.3,2.75,1.28,3.98-2.55,6.12,1.28,4.28,7.02,3.67-1.28,5.2,8.3,6.42-.32,9.48,6.07,4.59,9.9,2.14,1.6,13.45-1.92,4.59-7.34.61-6.39,1.83,1.28,4.59,5.43,2.75-2.23,4.28-2.23,1.53-7.02-.92-4.15,2.14-4.79,3.67-7.02.92-5.43-1.53-7.98-1.22-3.83,3.36-3.83,4.59-5.75,3.98-11.17.92ZM1708.79,681.71l-7.66-6.42-.32-12.84,8.62-4.59-2.55-5.5-6.39-5.5,7.34-11.31,10.86,1.22,4.47-13.45,15.01.61,12.45,10.4-2.55,6.12-6.07,5.5,5.43,9.48-6.07,14.07h-13.09l-19.48,12.23ZM1198.26,2018.01l-6.07-4.28,1.92-14.68,10.22-5.81,14.05,1.53,4.47-6.12,6.39,3.67,5.43,4.28,4.47,4.59-4.79,9.48-14.37,2.45-10.86-2.75-10.86,7.64ZM1112.05,2044.61l2.87-9.79,20.11-10.4,8.94,4.89,10.54,10.4s8.62,4.59,9.58,4.89c.96.61,0,5.81,0,5.81l-8.62.31-8.3-.61-3.19,8.56-11.17-2.45-5.11-6.42-7.66-2.14-7.98-3.06ZM281.6,615.96l-.96-11.62,10.54-12.23,16.92,3.98-5.75,11.31-14.69,8.56h-6.07ZM1018.82,1128.47c-2.23-.92-5.11-8.26-5.11-8.26l11.49-6.42,16.28,2.75-7.34-11.31,10.22-9.17,15.64,3.67,10.54,10.4,14.05,7.03,7.34,2.45,9.26-4.28,10.22-.31,5.11,5.5-7.02,11.93-12.45-1.53-8.62-4.89-5.75,3.06-15.01,3.06-32.57-1.22-16.28-2.45ZM908.03,1079.85l-2.23-6.12,20.75-11.93,23.63,3.06,19.8,4.59,17.88,10.09,19.8,6.42,13.41,6.73.32,12.54-19.16,6.12-5.11,4.89,5.11,9.48-8.62,7.95-16.28-3.06-4.15-11.01,14.69-5.2-3.51-6.73-4.47-14.98-14.69-10.09-25.22-10.7-13.41,1.22-9.58,4.59-8.94,2.14ZM1210.71,743.17l.64-20.49,16.6-12.54,7.02-15.6,11.17,3.67,2.23,7.64,16.6,4.28,3.19,10.7-.32,10.4,7.34,8.56-.64,7.34-10.86,10.7-11.81-8.26-12.13,2.45-5.75-16.21-11.17,3.98-12.13,3.36ZM975.72,491.2l-.32-13.76,9.26-8.26,18.2-1.53,13.09,6.42-.64,11.31-24.58,16.51-11.81.61-3.19-11.31ZM898.77,424.23l19.48-9.17,5.43-8.56-3.51-8.56-6.07-6.42-6.39-8.87,6.07-10.7,10.54-12.54,12.13-3.67,9.26,7.34,7.02,5.2-4.47,5.5-4.15,5.81,2.55,9.17,6.39,6.12,5.43,4.28.32,8.56,5.43,3.36,6.39-8.26,2.87-1.22,7.02,2.14.64,7.64-2.87,9.48-.32,9.48,11.49,4.59,3.19-11.62,3.51-6.42,10.54-4.28.32-9.79,2.55-12.84,7.34-1.53h10.86l13.09,9.17,2.87,6.42-2.55,7.03-7.98,3.06-2.55,8.26,10.22,5.2v6.42l-7.34,11.01-9.9,7.03-13.09,2.45-7.66-3.06-3.83-7.03-11.49,1.53-.96,7.95-6.7,4.59-12.77,1.22-12.45-7.34-9.58,1.22.32,7.95,9.9,4.89,14.37-1.22,1.28,4.59-5.11,10.7-7.66,9.79h-13.73l-15.33,17.43-24.58,19.88-22.67,16.82-4.79,15.9,2.87,7.64,12.77,1.53,5.11,14.07v11.01l10.22,7.34,20.75-1.83,15.01,20.49,15.01.31,10.86,13.76,17.24-4.28,9.26,9.48-4.79,7.64-4.15,27.83,5.43,13.76,20.11-4.28,7.66-18.35,2.23-19.88v-8.56l8.3-10.09,10.54-5.81.32-9.79-1.28-9.79-4.79-17.43-.96-13.76,11.49-3.67,3.19-13.15-5.11-18.96.32-11.93,12.45-11.01,4.79-5.81,8.3,7.64,16.28,3.06,14.69-2.45,4.15,2.14,8.94,13.76s7.34,4.59,9.26,4.59,8.62-.31,8.62-.31l3.83,3.98-2.23,8.26s-6.71,4.28-6.71,6.12c-.32,1.83-1.6,12.54-1.6,12.54l5.11,8.26,25.22,7.95,16.28-13.45,7.66-17.12,9.26,12.84v7.95l9.58,6.42,1.6,10.7,6.07,5.81-5.75,8.26,5.75,9.79,1.92,6.12.32,5.5,8.3,3.98,9.9.61,9.58,2.75.32,4.28-10.54,7.95-12.77,6.42-2.87,5.81,4.15,3.06,10.86-6.12,7.34-6.73h13.41s7.02,1.53,7.02,3.36-.64,5.5-.64,7.34-1.6,25.69-1.6,25.69l-6.07,4.89-17.56-1.53-6.7,6.73-17.24,7.95-24.27,1.83h-20.11l-13.41-4.59-6.07,4.89-10.54,6.73-18.52,12.23-1.92,8.56,8.3.31,10.86-9.48,9.58-8.87,15.01.31,9.9,8.56-8.94,7.34-2.55,7.34,4.15,7.95,7.66,2.75,13.41,2.14,13.09,1.53,3.19,9.17-6.7,11.62-15.01,3.06-8.94,8.56-8.94,10.7-12.77,2.45-4.79-1.22-1.6-11.62,13.09-10.4,10.54-9.48-1.6-9.48-9.26.31-5.75,9.17-16.92,18.04-10.54,6.12-26.82,9.48-4.47,10.09,1.92,3.06,6.07,7.03-2.55,8.87s-5.75,1.83-6.39,1.83h-11.49c-1.6,0-10.86-.31-10.86-.31l-2.24,5.5-1.92,7.03-12.77,2.45-5.43,8.26s-4.15,11.62-3.51,12.84c.64,1.22-.32,6.12-.32,6.12,0,0-10.86,5.2-11.81,5.81-1.28.31-4.79,2.45-4.79,2.45l.96,6.42,6.39,5.81-1.6,16.82-11.49,8.87-1.6,6.73-12.77-1.83-7.66,7.95-5.43,7.34-19.48,14.37-7.98,12.84,6.39,18.65,2.55,22.02,5.75,22.63.96,11.62-6.07,11.01-9.26-8.56-14.69-18.96-.64-24.46-8.62-15.6-9.9-5.81-11.81,5.5-8.3-7.95-18.52-1.53-16.28,1.83-1.28,7.95s2.87,8.87-1.6,9.17c-4.79.31-17.56-1.22-17.56-1.22l-3.83-9.79-1.6-7.34-7.02,3.36-4.47,11.62-11.81-7.34-7.02,7.34-12.77,10.09-7.02,8.26-9.9,3.67-6.07,33.64-3.51,15.6,2.55,16.21,3.19,16.51,4.79,16.82,20.75,8.56,22.67-1.83,15.01-12.54,8.3-13.15,13.41-9.17,20.75.92,5.75,9.48-6.39,14.98-5.43,11.62-3.19,10.09-1.28,20.18,5.11,9.17,8.3-5.5,7.02-3.06,10.54,2.75,10.54,3.36,6.39,5.5-3.19,7.34-.64,8.87-1.6,20.49v14.07l7.02,5.5,3.19,6.12,1.92,6.73,6.71,3.36,10.86-1.83,11.17-4.89,8.62,1.83,10.22,6.73,10.86,9.79,5.43-11.31,8.94-3.36,6.71-14.68,7.98-6.12,11.17-.31,7.66-14.07,6.07-1.83,11.17,7.64s8.94-4.89,11.17-4.89c1.92,0,10.54,8.87,10.54,8.87l8.94,4.28,12.13,9.79h25.86l18.52-7.34,18.2,2.45.32,9.79,6.07,11.01,9.26,5.81,5.43,7.03,7.98,3.98,3.51,8.56,8.3,1.22,2.55,9.79,8.94,3.06,9.26-7.64,12.77,1.83,15.96,11.62,18.2,20.18,12.13,16.82,1.6,10.7-6.07,11.62-10.86,15.29-8.62,8.56,3.83,3.98,5.11-4.59,9.26-11.93,6.7-6.42,10.22.92,2.23,3.98-.64,7.03s-4.47,1.83-4.47,3.67,3.83,5.2,3.83,5.2l6.39-4.89,6.07-6.42s5.75-1.22,9.58-1.22c4.15,0,14.05-.31,14.05-.31l7.34,3.98s8.94,7.34,10.54,9.17c1.6,1.83,16.28,7.34,16.28,7.34l2.87-4.89,10.22,4.59,22.99,2.45,4.79,8.87,10.86.92,7.02,11.62,9.58,5.5h9.58l.96,18.65,7.02,2.75-.96,14.07-8.62,14.37-13.73,18.04-7.34,15.9-3.51,9.79-16.92,5.2,6.7,47.4-7.34,10.4-3.51,26.91-11.17,8.56-1.6,24.16-17.56.31-5.43,5.2-16.6.92-30.65,20.79-2.23,43.12-15.33,6.12-2.87,18.35-6.39,7.34-1.28,9.17-6.7-.92s0-9.17.32-9.79c0-.92-2.55-7.03-2.55-7.03l-6.07,6.73.64,10.7-1.6,15.6-12.77,18.65-12.77,6.73-12.77-2.14-8.94-6.12-9.26,3.67,4.47,6.42,12.45,4.89,2.24,9.48,1.28,12.23-8.3,12.54-11.49,3.36-9.58,5.81-22.03.31-4.15,4.59,1.92,21.1-6.39,11.62-9.26-2.75-6.7-6.73-8.62,2.75,4.79,9.17,8.94,7.34,2.55,7.64s-.96,7.34-2.55,9.79c-1.92,2.45-7.02,5.2-7.02,5.2l-1.28,7.03-4.47,7.64-8.62,4.89-9.58,10.09-1.28,7.03,6.07,5.5,7.34,1.53,9.9,3.67-6.7,13.76-7.66,6.12-.32,20.79-10.22,1.83-3.19,17.43-.32,20.18-.96,9.48-7.98,6.42-1.92,7.34-5.43-3.36-4.47-7.64-6.07-3.36-5.11-3.06-11.49-11.31-5.75-9.79-4.15-6.73-8.62-9.17-5.43-16.51-.64-9.17s5.75-5.81,6.71-7.03c.64-1.22,1.6-4.89,1.6-5.81s-6.71-3.98-7.02-4.89c-.32-.92-2.23-7.03-2.23-7.03l7.02-16.51,5.75-3.06-.96-17.12-2.55-16.51-15.01-1.22,6.7-11.93-2.55-18.96-2.55-8.87-4.47-35.17,12.77-19.57,1.92-33.94-7.98-18.35,7.34-29.36-2.87-16.82,8.94-3.67-2.55-10.7,1.28-13.15,7.02-3.67,1.28-16.21-8.94-4.89-.32-9.17,8.94-6.42.64-22.32-6.07-15.6-4.15-14.68-7.66-11.01-19.8-12.23-15.33-3.36-22.35-25.38-3.83-11.62-12.13-29.97-13.09-19.88-8.94-25.99-5.75-8.56-11.81-2.45-3.83-26.6,8.94-5.2h7.66l-5.43-15.29-6.7-11.31,7.02-11.31,7.98-18.35,10.86-11.01,6.07-4.89,8.62-2.14,4.79-25.07-5.43-19.26-10.86-21.1-10.54-3.67-2.23,7.64-5.11,6.73-12.77-.31-6.7-4.59-12.45-.92-4.47-2.75-5.75-14.07-10.86-2.14-9.26-8.56-.64-13.15-20.11-25.38-18.52-10.7-17.88,3.06-21.39-23.55-17.56-4.28-7.34,6.73-19.16-1.22-24.27-12.84-54.92-38.84-1.28-12.23-2.87-12.23-3.51-16.21-10.54-12.54-15.64-16.82-3.19-10.4-19.16-25.07-3.19-13.15-19.8-22.32-4.47,9.79,11.49,25.07,15.96,19.88,6.07,15.9,8.3,15.29,8.94,13.45-1.28,10.09-9.58-.31-21.71-22.93-3.83-15.9-27.46-22.32,8.62-12.23-18.84-28.44-4.15-35.47-29.05-18.96-2.87-14.68-17.24-6.42,9.9-12.84-16.6-21.71v-24.77l9.26-30.58,7.98-29.97,4.79-26.91-4.79-15.9-13.09-22.93,12.45-2.75,16.6,16.21v16.51l10.86,4.28,2.55-18.35-13.41-19.26-29.69-23.55-3.51-21.71-9.26-3.06-6.7-15.9,2.87-14.68-15.33-7.64-5.43-9.79-6.7-11.31-10.54-8.26-19.48-5.2-17.88-18.35-13.41-12.23-30.01,1.83-5.43-11.31-12.45-9.79-10.54,5.2,1.28,12.84-26.82,24.16-16.6-2.45-1.92-12.84,14.69-10.09,11.81-7.64-5.75-7.95-11.49,3.98-31.29,29.97v12.23l-25.86,22.32-24.9,23.55-35.76,13.45-29.37,13.15-19.48-8.26,5.43-13.15,26.82-6.42,35.76-15.29,20.11-14.68,1.6-14.37-8.3-3.06h-12.77l-8.94.31-4.47,5.5-8.3-9.48s.96-7.34,3.51-8.26c2.55-.92,10.22-7.64,10.22-7.64l-2.87-7.95-4.15,2.75-7.34,7.64h-9.26l-5.11-8.26-.96-8.87,5.75-1.53-.96-5.81-7.34-5.5s.96-7.34,1.92-7.64c.64-.31,10.86-4.28,10.86-4.28l3.83-9.79,8.94-7.95,11.81,4.28,6.07-5.81,13.73-.61,9.26-10.7,3.83-7.95-6.39-3.36-6.39,7.95-15.33,1.83-15.64-.61-9.9-8.26,1.28-10.09-7.34-5.81,2.24-10.7,19.8,1.22,7.66-9.17,11.49-.31,6.39,9.17,29.69-2.75,1.28-10.7-13.41-2.14-22.99-4.89-15.96-14.07,6.39-9.79,25.22-.92,9.9-3.98,11.18-18.04,21.39-.92,10.22-12.54h16.6l15.64-7.95,11.81,4.28,2.55,7.03,15.96,2.14,9.26-5.5,10.22,10.7,36.08-1.22,3.51,6.42,32.89-4.59,22.67,11.31,24.27,1.83,40.23,16.51,2.55-14.07,22.35-12.84s11.49-12.84,13.73-12.23c1.92.61,8.3,9.78,8.3,9.78l-14.69,8.56,2.87,8.26,14.69-8.87,8.62-15.6,11.17,3.98,2.87,10.7,7.02,5.2,8.94-8.87,9.26,7.34,10.86-7.95s13.09,3.36,15.33,7.03c1.92,3.36,54.6,9.48,54.6,9.48l14.37,7.64-1.92,7.03-1.28,6.73,12.77,2.75,11.18-7.03,15.33,8.26,7.98,8.87,10.86-4.89-3.51-10.7,12.45-11.01,20.43,10.4,47.25,2.45,15.01-11.62,8.3,3.06,4.15,9.48ZM867.48,400.99l2.87-14.68,12.45-7.64,8.94.92,9.58,6.42-6.39,11.31-7.02,7.03-13.09-2.45-7.34-.92ZM1070.55,441.05l-1.92-9.79,4.15-12.23,6.39-1.53,7.02,2.75,4.47,3.67.32,7.34-6.07,6.12-4.47,2.45-9.9,1.22ZM1064.16,411.08l-7.66-4.28-3.19-9.48,7.34-10.7,11.81-.31,2.24,9.17-1.92,11.62-6.07,4.28-2.55-.31ZM991.36,381.42l-4.47-10.4,6.7-5.5-7.98-6.42-6.07-3.67-1.6-12.84,1.6-11.93,8.94-10.7,8.94-8.56,10.54-4.89,5.43,2.14,3.83,4.28-5.75,7.34-4.47,10.09,3.83,6.42,4.79.31s3.51-2.45,3.83-4.89c.32-2.14,2.23-10.09,2.23-10.09l3.19-6.73,8.3-9.79,10.86-.61h12.13l5.11,4.89,2.55,7.95-4.79,8.26-1.92,2.45-4.79,7.03,3.83,7.64,4.79-4.28,7.66-7.64,3.83-3.67,9.26-2.45h21.39l9.26,9.48,6.7,12.23s8.62,7.03,10.86,8.26c2.24,1.22,7.34,3.06,9.9,3.98,2.55.92,9.58,2.45,11.17,3.06,1.92.61,14.05,5.5,14.05,5.5l8.3,3.98,4.15,6.73v4.59l-4.47,7.34-5.11,6.73.96,7.03s9.26,14.68,18.84,17.74c9.26,3.36,24.9,8.26,24.9,8.26l8.62,3.36,2.24,8.87-12.45,16.21-1.92,10.7-9.58,1.83-7.66-7.03-7.98-12.54s-5.75-3.98-7.02-5.81c-1.28-1.83-5.11-6.73-5.11-6.73l-9.58.31-3.19,10.7,3.19,6.12,9.26,7.64,8.94,2.75,7.34,10.7-.64,14.68-3.19,12.54-6.39,1.53-6.07-2.75-12.45-12.84h-7.98l-.64,9.17,16.92,12.54-4.79,10.09-10.54-.61s-8.3-5.2-9.58-7.03c-1.6-1.83-18.52-16.51-18.52-16.51l-12.77-10.4-11.17-9.17-10.22,2.14s-6.7,4.28-9.26,4.59c-2.23.31-12.77.31-12.77.31l-8.94-5.2-4.79-9.48,16.28-8.87,10.22-.61,10.86-1.83,14.37-4.89,9.9-12.23.96-8.56-.32-17.74-7.66-10.4-10.22.92-9.26-.92-2.55-6.42s1.28-4.28,1.6-6.12c.64-1.83-2.24-6.42-2.24-6.42l-9.26-8.56-6.39-3.67-4.79,1.22-8.3,3.98-6.39,6.42-9.26-1.53-7.34-8.56-12.13-2.14-4.79,2.75-5.43,4.89-5.75,2.45-14.69-2.45ZM939.64,296.72s-8.62-.92-8.94-1.83c-.32-.92-3.83-6.12-3.83-7.34,0-.92,2.55-8.56,3.51-9.17.96-.92,6.7-2.75,8.3-2.75,1.6-.31,7.66,0,7.66,0,0,0,3.83,2.14,4.79,2.75.96.61,4.79,3.98,4.79,3.98l-2.55,6.42-4.15,3.36-2.23,3.67-7.34.92ZM929.42,347.79l-9.9-6.12.96-15.6,12.13-17.12,8.94-4.59,15.64-2.14,12.45,1.22,7.34,3.06-.96,8.26-7.98,5.81-11.17,4.89-4.79,6.73-2.55,4.28-10.54.31-4.47,3.98-.64,5.5-4.47,1.53ZM883.45,357.88l-7.34-6.73-3.19-7.03-5.75-2.45-5.75-2.75s-4.47-3.06-4.47-4.28v-5.5l4.47-5.2,5.75,1.53,3.83,4.28s1.6,4.28,2.55,4.59c1.28,0,3.51,1.22,4.79.31.96-1.22,3.19-4.59,3.19-5.5.32-1.22.96-3.98.32-5.2-.64-.92-3.19-3.36-3.51-4.28-.32-1.22-.96-5.5-.96-5.5l5.11-9.17,11.49-3.06,7.34,1.22,5.75,4.89.32,5.2-3.19,5.5s-2.55,3.98-2.24,5.2c.64,1.53,4.15,7.64,4.15,7.64l4.79,3.98,1.28,4.59-2.55,10.7s-3.83,6.42-4.79,7.03c-1.28.61-7.02,1.22-7.02,1.22h-6.39l-7.98-1.22ZM743.6,376.84l.64-9.17-8.3-3.06-13.41,2.14-12.77-.92-4.47-1.53s-1.28-3.98-1.28-5.5c.32-1.22,3.83-9.79,3.83-9.79,0,0,5.75-2.14,7.02-1.22.96.61,8.3,4.59,8.3,4.59,0,0,3.83.31,4.79-.31.96-.92,4.47-7.95,4.47-7.95,0,0,1.28-4.28,2.87-5.2,1.6-.61,13.09-6.12,13.09-6.12l9.9-6.73h6.7l4.15,4.28,1.6,6.42s3.83,1.22,5.43,1.22c1.28,0,4.47-1.53,4.47-1.53l2.55-5.5,2.87-1.22,2.87-.31s2.87,2.75,3.51,3.98c.64,1.22,3.83,6.42,3.83,6.42l3.19,5.2s3.51,1.22,5.11,1.22c1.28,0,5.11.31,5.43-.92.64-1.53,1.28-2.14,1.6-4.89,0-2.75.32-7.03.32-8.26s1.6-9.79,1.6-9.79l10.86-1.22,6.07-3.36.96-7.64,7.02-3.36s6.39,1.22,7.34,1.83c1.28.31,5.43,5.2,5.43,5.2l-3.19,4.89-5.75,2.14-4.47.61-3.51.61-.96,2.45,1.6,4.28.32,3.36s-2.55,2.45-3.51,3.06c-1.28.61-3.19,1.22-3.19,1.22l-3.51,4.89,4.79,7.95,6.7,7.34,2.87,4.89,5.11,2.14,7.34,1.22,4.47,3.98,2.24,6.73-6.07,1.83-2.87.92-5.75.31-.64,5.2,6.07,4.89.96,5.2-1.28,4.89-7.02,4.59-14.69.61h-9.9s-8.94-.92-10.22-.92c-.96-.31-9.26-.31-9.26-.31,0,0-9.58,1.83-10.54,2.45-.96.92-7.98,3.06-7.98,3.06,0,0-11.17.31-12.13,0-.64,0-12.13-1.53-13.73-2.14-1.92-.61-7.02-1.53-7.66-2.75-.32-.92-5.75-4.59-5.75-4.59l-7.98-5.5-4.47-2.14s-5.43-.92-7.02-1.22c-1.28-.31-2.87-.31-4.79-1.53-2.24-1.22-3.51-2.45-4.79-3.98-1.28-1.53-2.87-3.67-2.23-5.2.96-1.53,3.83-3.98,3.83-3.98l7.34-3.06s8.3.61,9.26.61c1.28.31,6.07,2.45,6.07,2.45l3.19,2.75,5.11-1.22ZM662.82,367.05l-12.13-6.42-11.17-6.73-3.19-9.17,7.34-9.79s7.02-8.26,8.94-9.17c1.92-.92,7.98-6.73,7.98-6.73l2.24-14.68,9.9-8.56,5.11,5.81,7.66-7.03,7.98-.31,7.02,6.42,12.45,3.67s8.3.61,11.49,1.83c3.19,1.22,14.05,7.03,14.05,7.03l5.75,3.98.64,6.42-9.26,6.12-13.41,4.59-11.17.92-8.3,5.2-13.73,8.26-14.69,10.4-11.49,7.95ZM712.31,279.9l-14.69-2.45-4.15-5.2-2.24-6.73s4.47-7.64,5.43-7.95c.64,0,8.3-2.14,8.3-2.14,0,0,12.45-1.53,13.41-1.83,1.28-.31,9.26-5.2,10.54-5.81.96-.92,7.02-4.28,7.02-4.28l8.3-5.2,10.86-4.59,7.66,1.53,3.51,7.64-1.6,11.01-6.07,6.42h-17.88l-5.43,1.83-3.19,8.26,3.19,3.67s6.39-1.22,7.66-.92c.96,0,6.07,1.22,6.07,1.22,0,0-.32,1.53.32,3.36.96,1.83,0,9.48,0,9.48l-5.11,3.98s-7.98,1.22-9.26.31c-1.28-1.22-4.47-4.89-4.47-4.89,0,0-.96-3.67-.96-4.59,0-1.22-.96-4.89-.96-4.89l-4.47-.92-5.75,2.45s-1.28,1.22-2.24,1.53c-.96,0-3.83-.31-3.83-.31h0ZM762.44,301.31l-7.66-5.81s0-8.56.96-9.48c.96-1.22,6.71-9.79,6.71-9.79l8.3,3.06s5.43,3.98,6.39,3.06c.96-.92,7.02-6.12,7.02-6.12l5.43-5.5,11.17-3.06,2.55-6.12,2.55-4.89,10.54-1.22,6.39,3.36,2.87,9.48,12.77,3.98,8.94,2.75,10.86,7.95,1.6,9.17-5.43,5.2-9.58-.61-6.39-6.73-4.15-.61h-8.94l-4.15,1.83-12.13,3.36-7.02,2.14-9.26,6.12-17.56,2.14-10.22-.92-2.55-2.75ZM786.38,253.3l-2.23-7.95,7.98-9.79s2.87-5.5,3.83-5.5,11.49.31,12.77,0c.96-.31,10.54-.31,10.54-.31l2.55,4.28-2.55,5.81-2.55,4.89-9.9-.92-5.75,1.83-3.83,3.98-2.55,4.59-8.3-.92ZM789.58,227l-6.07-6.42,6.07-7.03,9.26-7.64s10.22-3.06,11.49-3.06c.96,0,6.07,1.22,6.07,1.22l7.02,4.89,2.24,5.2-2.24,5.81-7.02,3.36h-8.62l-7.98.31-6.07,1.83-4.15,1.53ZM957.52,273.17l-7.66-11.31,6.7-10.09,12.13-6.12h10.54l11.17,1.22,4.79,13.15,5.43,9.48s10.54,3.98,12.45,3.98,17.56.31,17.56.31l22.99,2.14,13.73.92,9.9,9.17,1.6,8.56-5.75,8.26s-6.07,3.67-8.94.31c-3.19-3.67-6.7-6.12-8.62-6.73-2.23-.61-13.41-3.36-17.24-2.14-4.15,1.22-10.54,3.36-13.09,3.67-2.87.61-13.73.92-16.92.92-3.51,0-15.33.61-17.56,0-2.24-.61-8.62-2.75-10.22-4.59-1.28-1.83-10.54-9.48-10.54-9.48l-5.43-6.73-7.02-4.89ZM874.83,286.63l-8.94-11.01-8.94-6.42,7.98-10.09,10.86.92,4.15,7.34,6.07.92,2.87-6.42,5.43-1.53,9.58-1.22h12.13l3.19,5.81-2.55,12.23-7.98,9.79-13.09,4.59-13.09-.92-7.66-3.98ZM884.4,232.5l-10.86-6.42-10.54-3.36-5.43-9.17,3.51-9.48,13.41-3.67s9.9,1.83,12.13,2.75c1.92.92,11.17,6.73,11.17,6.73l10.54,11.31,2.55,11.01-4.79,7.64s-5.75,1.53-7.66,1.53-8.94-.31-8.94-.31l-4.79-3.06-.32-5.5ZM928.78,201.92l-9.58-7.95,6.07-11.93,9.26-1.22,7.98,3.98v7.34l-4.79,6.73,2.23,6.73,12.13,3.67,7.02,6.12-1.6,11.01-2.87,12.84-15.01-1.22-12.45-6.42-.96-11.01,6.7-9.48-4.15-9.17ZM978.27,199.78l-9.58.92-5.43-4.89-.64-9.79,7.98-12.23,7.98-12.84,13.41-1.53,13.41,9.79,14.37,7.95,6.39,9.17-1.28,14.07-3.51,13.15-3.51,9.48-10.22,3.67-27.46-4.28-5.11-8.87.64-7.03,3.83-1.53-1.28-5.2ZM1000.62,253.3l6.07-7.95,11.49,2.14,15.96-15.29,17.56-14.98-2.23-8.56-7.98-7.34,6.39-12.23,15.64,11.62,15.64,2.14,3.51-6.73-8.94-3.98-.96-5.2,10.22-5.2h18.84l12.45-3.98-3.83-9.48-6.7-1.22-8.3,5.2-12.45.92-9.9,5.5-7.98,6.12-15.01-1.53-12.45-4.59-9.58-11.31-6.39-7.64-4.47-6.12,5.75-5.5,10.86.92,8.94-2.14,5.43-7.03,2.87-3.98,10.22-.31,7.66,5.2,4.47,5.5h16.28l5.11-5.5,10.86-11.01h14.37l12.13,2.14,6.07-6.12,11.17,5.81,1.92,7.03,8.62-2.75,12.45-13.45,31.93-.31,28.74,3.98,13.73-2.45,15.96,7.03,6.39,6.73-7.98,10.09-12.45,1.53-22.03.31-17.24.92-.64,6.12,7.02,8.26-3.51,8.87-6.39,8.56-12.77,7.64-4.79,4.59-12.45,4.59-12.45-4.28-9.58-.92-8.3,3.67-4.15,5.2-3.51,7.95-7.98,9.79-10.54,9.17-12.45,3.67h-13.09l-2.55,5.81,9.26,4.89,4.47,6.12-1.6,4.59-6.7,8.87-10.22,4.59-14.69,1.22-13.09.92h-15.64l-17.24-2.75-12.77-.92-6.7-4.28-5.75-8.87ZM1984.65,190.61l-2.55-8.87,7.98-9.48,11.18-.61,5.11,4.59s7.34,3.67,8.62,3.98c1.28,0,9.9,1.22,9.9,1.22l7.66-2.45,3.83-3.67,10.22-1.22,6.07.92,3.19,6.12-4.79,7.34-8.94,5.2-11.49,6.42-6.07,3.36-14.05.61-15.01-3.67-10.86-9.79ZM1907.71,217.52l-5.11-14.07-1.6-10.4,18.2-6.73,4.15,9.79,7.66-4.89,9.26,6.73h7.02l4.47-12.23,15.65-.92,8.62,6.73,5.11,12.23,21.39,8.26,17.88,8.87,7.02,10.7-5.43,7.64-20.11.92-12.13-3.06,1.6-9.48-7.34-4.59-9.26,3.06-7.34,6.12v15.29l-2.24,7.64-11.81-3.67-8.62-9.48-8.94-9.48v-6.42l6.39-6.42.64-6.42-8.62-1.22-4.15,3.67-3.19,4.28-11.18,1.83-7.98-4.28ZM1575.97,467.35l-4.79-8.56,9.58-16.21,9.58-4.59,5.75,5.81v5.2l8.62-.92,4.47-8.26,10.54-.31,7.34,8.56,12.77.31,14.05-7.03,10.86,1.83,9.58,7.64-3.19,20.79-12.45,11.01-14.37,1.83-8.94,3.36-2.55,9.17-10.86-2.75-8.3-8.56-10.54-2.45-8.62,4.28-9.9-1.22,2.87-6.73,7.66-7.03-1.92-8.56-10.86-1.53-3.51,7.03-2.87-2.14ZM1287.98,395.8l3.83-11.31,11.49-3.67,12.13,2.75,4.15,5.81-8.3,6.12-12.13,3.67-11.17-3.36Z"/>
</svg>